<svg viewBox="0 0 64 64" xmlns="http://www.w3.org/2000/svg" fill="none">
  <path fill="url(#a)" d="M31.948 0C14.364 0 0 14.364 0 32.052 0 49.636 14.364 64 31.948 64S64 49.636 64 32.052C64 14.364 49.636 0 31.948 0Z"></path>
  <path fill="#fff" d="M51.472 48.303c-1.604-1.189-2.793-1.81-3.323-2.197-.62-.44-.931-1.125-.931-1.125s2.508-.57 3.827-.75c1.332-.181 1.991-.414 2.069-.57.09-.193-2.095-2.688-4.5-4.318-2.405-1.642-5.107-2.534-5.107-2.534s-.22-.09-.491-.607c-.207-.401-3.556-8.055-3.556-8.055s-1.073-3.426-5.534-7.486c-7.266-6.594-10.886-5.663-11.274-5.534-.168.052-.297-.026-.608-.285-.232-.193-2.689-2.133-4.486-2.391-1.797-.259-2.832.297-3.142 1.435-.31 1.15.181 2.47 1.345 3.788 1.163 1.306 1.68 2.133 1.913 2.819.233.685.97 3.542 1.539 4.68.569 1.15 1.758 2.495 1.758 2.495s.207.233.13.414c0 0-1.112 2.263-1.125 5.663-.013 3.413 1.241 5.935 2.288 6.814 1.048.88 1.759.633 2.017.478.272-.168.84-.776.996-2.133.142-1.241.375-2.172.375-2.172s1.125 2.702 2.418 4.111c3.18 3.452 4.227 3.737 4.227 3.737s-1.603-.84-4.292-5.624c-1.267-2.25-2.457-5.418-2.457-5.418s-.698.543-1.357 2.043c-.66 1.513-.672 3.853-.672 3.853s.038.297-.453.104c-.491-.194-1.306-1.436-1.707-3.634-.388-2.198-.116-4.538.543-6.167.66-1.629.479-2.405.246-2.69-.233-.297-1.228-.878-2.146-3.413-.918-2.52-1.112-3.672-1.797-4.783-.686-1.112-2.703-3.31-2.677-4.099.039-.789.492-1.034 1.19-.918.698.116 2.831 1.15 3.581 1.642.75.491 1.15 1.06 1.733 1.112.594.052 1.926-.285 3.671.427 1.733.698 6.064 3.064 8.844 6.607 2.78 3.542 3.491 5.391 3.93 6.671.44 1.28 2.199 5.301 2.742 6.206.543.905.452 1.37 1.758 1.771 1.293.388 2.676.466 5.185 2.134 2.508 1.668 3.193 2.508 3.193 2.508s.104.103.052.155c-.052.052-.233.052-.44.052-.737-.013-1.784-.013-2.857.13-1.965.258-3.232.93-3.18 1.111 0 .117.336 1.578 1.77 2.754.983.802 2.535 1.345 4.177 2.21 1.823.97 3.53 2.69 3.53 2.69s-1.332-2.508-2.935-3.71Z"></path>
  <path fill="#fff" d="M22.355 19.368s.478.4.956 1.112c.479.698.595 1.357.595 1.357s.996-1.034.298-2.133c-.712-1.112-1.85-.336-1.85-.336Z"></path>
  <defs>
    <linearGradient gradientUnits="userSpaceOnUse" y2="55.941" x2="8.039" y1="10.88" x1="53.099" id="a">
      <stop stop-color="#0CA6D3"></stop>
      <stop stop-color="#096B88" offset="1"></stop>
    </linearGradient>
  </defs>
</svg>
